<?xml version="1.0" encoding="utf-8"?>
<!-- Generator: Adobe Illustrator 26.3.0, SVG Export Plug-In . SVG Version: 6.00 Build 0)  -->
<svg version="1.1" id="Capa_1" xmlns="http://www.w3.org/2000/svg" xmlns:xlink="http://www.w3.org/1999/xlink" x="0px" y="0px"
	 viewBox="0 0 776.1 119.6" style="enable-background:new 0 0 776.1 119.6;" xml:space="preserve">
<style type="text/css">
	.st0{fill:#484C52;}
</style>
<g>
	<path class="st0" d="M0,78.3l10.1-10.1c5.1,7.3,11.4,11.6,22.2,11.6c10,0,16.5-4.4,16.5-11.7c0-21.3-43.2-10.1-43.2-42.6
		C5.7,9.4,18.7,0,35.5,0c12,0,21.6,5.2,27.6,12.5L52.9,22.6c-5.2-5.9-10.5-8.7-17.8-8.7c-9.1,0-14.4,3.8-14.4,10.4
		c0,19.2,43.2,9,43.2,42.8c0,16.4-12.4,26.5-32,26.5C17.4,93.6,7.9,88.4,0,78.3z"/>
	<path class="st0" d="M76.8,29.9h14.3v6.4c4.3-4.9,10.7-7.7,17.9-7.7c8.6,0,16,3.8,20,10.4c4.7-6.5,12.1-10.4,20.8-10.4
		c13.4,0,24.2,9,24.2,23.4v40.3h-14.3V55.1c0-8.3-5.9-13.1-13.5-13.1s-13.7,4.8-13.7,13.1v37.2h-14.3V55.1c0-8.3-5.9-13.1-13.5-13.1
		s-13.7,4.8-13.7,13.1v37.2H76.8V29.9z"/>
	<path class="st0" d="M184.9,61.2c0-18.3,13.1-32.6,30-32.6c7.9,0,14.7,3.1,19.1,8.2v-6.9h14.3v62.4H234v-6.8
		c-4.4,5.1-11.2,8.1-19.1,8.1C198,93.6,184.9,79.4,184.9,61.2z M234.9,61.1c0-11.2-7.2-19-17.7-19c-10.4,0-17.7,7.8-17.7,19
		s7.3,19,17.7,19C227.8,80.1,234.9,72.3,234.9,61.1z"/>
	<path class="st0" d="M264.2,29.9h14.3v6.5c3.5-4.9,9-7.8,16.3-7.8c6.2,0,11.2,2.2,15.5,7.2l-9.4,9.6c-2.3-2.3-4.9-3.4-8.6-3.4
		c-8.1,0-13.8,4.9-13.8,15.6v34.7h-14.3V29.9z"/>
	<path class="st0" d="M344.2,15h-29.6V1.3h74.2V15h-29.6v77.4h-15V15z"/>
	<path class="st0" d="M386.6,29.9h14.3v6.5c3.5-4.9,9-7.8,16.3-7.8c6.2,0,11.2,2.2,15.5,7.2l-9.4,9.6c-2.3-2.3-4.9-3.4-8.6-3.4
		c-8.1,0-13.8,4.9-13.8,15.6v34.7h-14.3V29.9z"/>
	<path class="st0" d="M433.8,61.2c0-18.3,13.1-32.6,30-32.6c7.9,0,14.7,3.1,19.1,8.2v-6.9h14.3v62.4h-14.3v-6.8
		c-4.4,5.1-11.2,8.1-19.1,8.1C446.9,93.6,433.8,79.4,433.8,61.2z M483.9,61.1c0-11.2-7.2-19-17.7-19c-10.4,0-17.7,7.8-17.7,19
		s7.3,19,17.7,19C476.7,80.1,483.9,72.3,483.9,61.1z"/>
	<path class="st0" d="M511.9,9.9c0-4.8,3.5-8.6,8.5-8.6c4.9,0,8.5,3.8,8.5,8.6c0,4.8-3.5,8.6-8.5,8.6
		C515.4,18.5,511.9,14.7,511.9,9.9z M513.2,29.9h14.3v62.4h-14.3V29.9z"/>
	<path class="st0" d="M543.5,29.9h14.3v7.2c4.3-5.3,10.9-8.5,18.6-8.5c14,0,24.2,12.4,24.2,24.6v39.1h-14.3v-36
		c0-8.3-5.9-14.3-14.2-14.3s-14.3,6-14.3,14.3v36h-14.3V29.9z"/>
	<path class="st0" d="M614,9.9c0-4.8,3.5-8.6,8.5-8.6c4.9,0,8.5,3.8,8.5,8.6c0,4.8-3.5,8.6-8.5,8.6C617.5,18.5,614,14.7,614,9.9z
		 M615.3,29.9h14.3v62.4h-14.3V29.9z"/>
	<path class="st0" d="M645.6,29.9h14.3v7.2c4.3-5.3,10.9-8.5,18.6-8.5c14,0,24.2,12.4,24.2,24.6v39.1h-14.3v-36
		c0-8.3-5.9-14.3-14.2-14.3s-14.3,6-14.3,14.3v36h-14.3V29.9z"/>
	<path class="st0" d="M713.2,59.7c0-17.7,12.6-31.1,29.4-31.1c8.1,0,14.8,3,19.2,7.9v-6.6h14.3v59.8c0,17.9-13.4,29.9-32.9,29.9
		c-13.1,0-23.1-4.9-29.3-13.7l9.4-9.4c4.9,6.2,11.2,9.4,20.2,9.4c11.3,0,18.3-6.1,18.3-16.2v-6.8c-4.4,5.1-11.2,8.1-19.2,8.1
		C725.8,91,713.2,77.5,713.2,59.7z M762.7,59.8c0-10.7-6.9-17.7-17.3-17.7s-17.6,7.2-17.6,17.7s7.2,17.7,17.6,17.7
		S762.7,70.5,762.7,59.8z"/>
</g>
</svg>
