<?xml version="1.0" encoding="utf-8"?>
<!-- Generator: Adobe Illustrator 26.3.0, SVG Export Plug-In . SVG Version: 6.00 Build 0)  -->
<svg version="1.1" id="Capa_1" xmlns="http://www.w3.org/2000/svg" xmlns:xlink="http://www.w3.org/1999/xlink" x="0px" y="0px"
	 viewBox="0 0 588 86.4" style="enable-background:new 0 0 588 86.4;" xml:space="preserve">
<style type="text/css">
	.st0{fill:#484C52;}
</style>
<g>
	<path class="st0" d="M0,72.2l9.4-9.4c4.7,6.7,10.6,10.7,20.5,10.7c9.2,0,15.2-4.1,15.2-10.8c0-19.7-39.8-9.4-39.8-39.4
		C5.3,8.6,17.3,0,32.8,0c11,0,19.9,4.8,25.4,11.5l-9.4,9.4c-4.8-5.4-9.7-8-16.4-8c-8.4,0-13.3,3.5-13.3,9.6
		c0,17.8,39.8,8.3,39.8,39.5c0,15.1-11.4,24.5-29.5,24.5C16.1,86.4,7.3,81.6,0,72.2z"/>
	<path class="st0" d="M75.1,27.6h13.2v5.9c4-4.6,9.8-7.1,16.6-7.1c7.9,0,14.8,3.5,18.5,9.6c4.3-6,11.2-9.6,19.2-9.6
		c12.4,0,22.3,8.3,22.3,21.6v37.2h-13.2V50.9c0-7.7-5.4-12.1-12.5-12.1s-12.6,4.4-12.6,12.1v34.3h-13.2V50.9
		c0-7.7-5.4-12.1-12.5-12.1s-12.6,4.4-12.6,12.1v34.3H75.1V27.6z"/>
	<path class="st0" d="M179,56.5c0-16.9,12.1-30.1,27.7-30.1c7.3,0,13.6,2.9,17.6,7.6v-6.4h13.2v57.6h-13.2V79
		c-4.1,4.7-10.3,7.4-17.6,7.4C191.2,86.4,179,73.3,179,56.5z M225.2,56.4c0-10.3-6.6-17.5-16.3-17.5c-9.6,0-16.3,7.2-16.3,17.5
		c0,10.3,6.7,17.5,16.3,17.5C218.6,73.9,225.2,66.7,225.2,56.4z"/>
	<path class="st0" d="M256.4,27.6h13.2v6c3.2-4.6,8.3-7.2,15-7.2c5.8,0,10.3,2,14.3,6.6l-8.6,8.9c-2.2-2.2-4.6-3.1-7.9-3.1
		c-7.4,0-12.7,4.6-12.7,14.4v32h-13.2V27.6z"/>
	<path class="st0" d="M334.6,13.8h-27.4V1.2h68.5v12.6h-27.4v71.4h-13.8V13.8z"/>
	<path class="st0" d="M377.9,27.6h13.2v6c3.2-4.6,8.3-7.2,15-7.2c5.8,0,10.3,2,14.3,6.6l-8.6,8.9c-2.2-2.2-4.6-3.1-7.9-3.1
		c-7.4,0-12.7,4.6-12.7,14.4v32h-13.2V27.6z"/>
	<path class="st0" d="M425.6,56.5c0-16.9,12.1-30.1,27.7-30.1c7.3,0,13.6,2.9,17.6,7.6v-6.4h13.2v57.6H471V79
		c-4.1,4.7-10.3,7.4-17.6,7.4C437.8,86.4,425.6,73.3,425.6,56.5z M471.8,56.4c0-10.3-6.6-17.5-16.3-17.5c-9.6,0-16.3,7.2-16.3,17.5
		c0,10.3,6.7,17.5,16.3,17.5C465.2,73.9,471.8,66.7,471.8,56.4z"/>
	<path class="st0" d="M502,9.1c0-4.4,3.2-7.9,7.8-7.9c4.6,0,7.8,3.5,7.8,7.9s-3.2,7.9-7.8,7.9C505.2,17,502,13.6,502,9.1z
		 M503.2,27.6h13.2v57.6h-13.2V27.6z"/>
	<path class="st0" d="M535.3,27.6h13.2v6.6c4-4.9,10.1-7.8,17.2-7.8c13,0,22.3,11.4,22.3,22.7v36.1h-13.2V52
		c0-7.7-5.4-13.2-13.1-13.2s-13.2,5.5-13.2,13.2v33.2h-13.2V27.6z"/>
</g>
</svg>
